<svg xmlns="http://www.w3.org/2000/svg" width="100" height="100" viewBox="0 0 100 100">
    <path d="M50 10c-16.6 0-30 13.4-30 30v20c0 3.3 2.7 6 6 6h48c3.3 0 6-2.7 6-6V40c0-16.6-13.4-30-30-30zm0 4c13.2 0 24 10.8 24 24v20H26V38c0-13.2 10.8-24 24-24zm-4 10h8v4h-8zm-12 0h8v4h-8zm20 0h8v4h-8zm-12 0h8v4h-8zm-12 0h8v4h-8zm20 0h8v4h-8zm-12 0h8v4h-8zm-12 0h8v4h-8zm20 0h8v4h-8zm-12 0h8v4h-8zm-12 0h8v4h-8zm20 0h8v4h-8zm-12 0h8v4h-8zm-12 0h8v4h-8zm20 0h8v4h-8zm-12 0h8v4h-8zm-12 0h8v4h-8zm20 0h8v4h-8zm-12 0h8v4h-8zm-12 0h8v4h-8zm20 0h8v4h-8zm-12 0h8v4h-8zm-12 0h8v4h-8zm20 0h8v4h-8zm-12 0h8v4h-8zm-12 0h8v4h-8zm20 0h8v4h-8zm-12 0h8v4h-8zm-12 0h8v4h-8zm20 0h8v4h-8zm-12 0h8v4h-8zm-12 0h8v4h-8zm20 0h8v4h-8zm-12 0h8v4h-8zm-12 0h8v4h-8zm20 0h8v4h-8zm-12 0h8v4h-8zm-12 0h8v4h-8zm20 0h8v4h-8zm-12 0h8v4h-8zm-12 0h8v4h-8zm20 0h8v4h-8zm-12 0h8v4h-8zm-12 0h8v4h-8zm20 0h8v4h-8zm-12 0h8v4h-8zm-12 0h8v4h-8zm-20 8v12h64V38c0-13.2-10.8-24-24-24H26c-13.2 0-24 10.8-24 24v20h8V40c0-9.9 8.1-18 18-18h28c9.9 0 18 8.1 18 18v20h8V38c0-13.2-10.8-24-24-24H26c-13.2 0-24 10.8-24 24v20h8V40c0-9.9 8.1-18 18-18h28c9.9 0 18 8.1 18 18v20h8V40c0-9.9 8.1-18 18-18h4z"/>
</svg>