<?xml version="1.0" standalone="no"?>
<!DOCTYPE svg PUBLIC "-//W3C//DTD SVG 20010904//EN"
 "http://www.w3.org/TR/2001/REC-SVG-20010904/DTD/svg10.dtd">
<svg version="1.0" xmlns="http://www.w3.org/2000/svg"
 width="1024.000000pt" height="1024.000000pt" viewBox="0 0 1024.000000 1024.000000"
 preserveAspectRatio="xMidYMid meet">

<g transform="translate(0.000000,1024.000000) scale(0.100000,-0.100000)"
fill="#000000" stroke="none">
<path d="M5054 8876 c-34 -15 -65 -59 -84 -120 -15 -47 -71 -111 -119 -135
-78 -40 -109 -41 -1200 -41 -698 0 -1077 -4 -1117 -11 -157 -27 -354 -111
-492 -209 -237 -167 -419 -450 -467 -727 -21 -118 -21 -628 -1 -677 39 -93
158 -112 232 -35 l29 30 6 302 c7 332 12 371 72 500 120 257 355 443 647 512
56 13 212 15 1125 15 870 0 1069 3 1110 14 106 29 194 82 261 156 20 22 40 37
45 34 5 -3 6 2 3 10 -3 9 -3 16 0 16 12 0 81 -84 78 -94 -2 -6 -1 -8 3 -4 4 4
31 -11 60 -33 29 -21 81 -52 116 -67 l64 -27 1120 -5 c1119 -6 1120 -6 1183
-28 265 -92 431 -225 559 -447 46 -79 87 -184 81 -209 -2 -14 -11 -12 -53 15
-27 17 -83 45 -123 61 -180 72 -344 82 -712 43 -140 -14 -302 -31 -360 -36
-193 -16 -233 -32 -277 -106 l-28 -48 -5 -660 -5 -660 -27 135 c-15 74 -45
250 -68 390 -23 140 -57 352 -76 470 -41 256 -60 307 -128 339 -51 25 -108 26
-266 6 -555 -73 -539 -70 -585 -107 -37 -29 -64 -90 -136 -306 l-64 -194 -5
79 c-12 179 -118 283 -324 318 l-38 6 36 -32 c77 -67 107 -192 71 -299 -16
-49 -72 -119 -117 -145 -29 -17 -140 -609 -174 -925 -18 -174 -23 -462 -10
-590 8 -84 8 -86 -19 -118 -38 -45 -95 -72 -151 -72 -145 0 -193 140 -180 530
12 376 66 707 177 1087 21 71 21 72 2 100 -29 42 -35 60 -42 145 l-6 77 -52
-40 c-43 -32 -60 -55 -92 -122 -69 -146 -128 -338 -170 -557 -16 -83 -60 -423
-61 -475 -1 -20 -19 22 -69 160 -115 319 -340 913 -362 957 -23 45 -49 64
-116 84 -50 14 -61 14 -275 -20 -123 -20 -257 -40 -298 -46 -41 -6 -98 -22
-127 -36 -43 -20 -56 -34 -77 -76 -23 -46 -26 -64 -26 -156 0 -91 -2 -103 -15
-92 -8 7 -12 17 -8 23 3 6 1 7 -5 3 -7 -4 -31 6 -55 23 -106 77 -233 106 -420
98 -191 -8 -357 -56 -603 -173 -238 -113 -425 -335 -496 -589 -21 -75 -22
-105 -26 -458 -3 -315 -1 -390 12 -454 39 -185 173 -391 331 -510 59 -44 306
-189 405 -238 69 -34 141 -88 155 -116 9 -17 15 -57 15 -104 l0 -75 -37 41
c-79 87 -158 103 -353 70 -69 -11 -240 -39 -380 -61 -140 -22 -272 -44 -292
-50 -42 -12 -78 -52 -78 -86 0 -34 -15 -37 -60 -14 -79 40 -126 138 -117 241
6 69 26 109 88 177 57 62 70 107 46 158 -46 94 -174 95 -264 2 -48 -50 -101
-145 -125 -221 -27 -91 -22 -252 11 -338 67 -175 239 -319 416 -350 33 -5 67
-12 75 -16 8 -3 42 -4 76 -4 l61 2 6 -163 c6 -165 17 -224 55 -312 12 -26 19
-53 15 -59 -3 -5 -2 -7 4 -4 9 6 49 -60 45 -75 -1 -5 3 -8 10 -8 6 0 9 -3 5
-6 -3 -4 9 -22 28 -40 40 -38 46 -53 13 -32 -29 19 -122 141 -148 193 -15 30
-18 33 -14 12 l6 -27 -197 0 -197 0 -29 -29 c-24 -24 -29 -38 -29 -76 0 -40 5
-52 34 -81 34 -34 34 -34 129 -34 l96 0 88 -75 c182 -154 423 -258 718 -311
94 -17 388 -19 496 -4 194 28 378 98 540 206 86 58 233 195 275 256 16 24 33
46 38 50 11 7 115 26 342 63 83 13 167 31 186 41 19 9 47 35 62 57 l26 41 1
476 1 475 28 -85 c66 -201 155 -300 272 -300 42 0 170 18 283 40 68 13 158 25
169 22 4 -2 15 3 23 10 19 16 17 4 -38 -202 -60 -230 -66 -285 -37 -363 14
-36 84 -77 131 -77 57 0 598 79 632 92 41 15 73 46 95 88 17 35 83 251 143
468 22 83 34 112 46 112 15 0 70 12 220 46 35 8 101 21 146 29 45 8 89 17 97
20 16 6 18 -2 54 -255 46 -325 47 -328 119 -364 42 -21 60 -19 590 54 140 19
412 55 640 85 66 8 139 22 162 31 51 18 98 70 112 121 6 21 11 134 11 255 l0
216 73 17 c169 38 721 169 759 181 11 3 18 -2 21 -18 2 -13 5 39 6 114 l1 137
43 11 c222 58 394 113 472 152 264 133 428 384 427 654 -1 163 -54 299 -162
416 -68 75 -156 129 -265 164 -102 33 -201 30 -382 -11 -22 -5 -21 -3 11 57
63 114 107 276 121 434 l7 81 60 7 c34 3 81 6 104 6 l44 0 0 43 c0 64 -29 221
-57 312 -34 108 -93 226 -152 305 -48 64 -184 201 -229 232 -18 12 -29 41 -52
134 -34 137 -119 321 -196 424 -177 235 -386 377 -679 462 l-80 23 -1130 5
c-1125 5 -1130 5 -1176 26 -60 28 -110 79 -137 140 -37 81 -46 96 -73 116 -34
25 -96 32 -135 14z m2979 -1465 c215 -57 363 -197 428 -404 45 -145 51 -221
47 -604 l-4 -348 -27 -78 c-78 -224 -251 -383 -504 -466 -70 -23 -385 -81
-439 -81 -3 0 -3 -320 0 -711 4 -392 3 -727 0 -746 -9 -48 -36 -57 -238 -84
l-169 -22 -24 27 -23 27 0 1728 0 1728 98 7 c53 4 187 18 297 31 246 30 435
29 558 -4z m-1689 -190 c13 -15 27 -80 52 -253 19 -128 49 -334 69 -458 19
-124 59 -394 90 -600 70 -460 84 -540 99 -541 6 0 33 0 59 1 63 2 87 -18 87
-72 0 -48 -32 -84 -84 -93 -20 -4 -38 -10 -40 -14 -2 -3 2 -46 10 -96 153
-1004 177 -1180 170 -1209 -10 -39 -44 -55 -152 -72 -191 -29 -199 -29 -226
-2 -21 20 -27 41 -36 123 -7 55 -28 212 -47 349 -38 280 -45 299 -109 304 -48
4 -711 -106 -751 -124 -17 -8 -38 -27 -47 -42 -9 -15 -59 -173 -113 -352 -106
-358 -128 -421 -154 -444 -17 -15 -131 -38 -267 -53 -60 -6 -84 11 -84 60 0
48 171 638 189 653 9 7 53 40 99 74 134 100 278 235 592 552 252 255 305 304
365 336 l70 38 0 106 c0 88 -3 109 -18 126 -40 44 -143 35 -209 -18 -22 -18
-38 -27 -35 -19 5 13 36 108 138 426 21 67 39 136 39 153 0 34 -44 365 -58
440 -11 54 -1 75 -107 -225 -193 -549 -258 -713 -370 -935 -147 -290 -247
-431 -436 -616 -113 -110 -233 -203 -336 -261 -307 -171 -585 -162 -673 24
-40 84 -158 417 -282 793 -66 201 -137 412 -157 468 l-38 104 -6 -63 c-4 -34
-7 -578 -7 -1209 0 -1121 0 -1147 -19 -1164 -14 -13 -60 -23 -158 -36 -76 -11
-154 -22 -174 -25 -31 -6 -39 -4 -57 20 l-22 28 0 1634 c0 1750 -2 1678 47
1698 24 9 330 55 368 55 69 -1 43 59 445 -1010 320 -854 330 -875 409 -917 53
-27 136 -31 201 -8 162 57 436 321 512 493 49 109 409 1168 563 1655 28 86 46
126 67 148 16 16 35 29 41 30 7 0 98 13 202 28 237 36 267 37 289 12z m-954
-472 c-16 -46 -54 -160 -84 -254 l-55 -170 0 176 -1 177 30 12 c32 13 105 89
123 128 22 47 15 12 -13 -69z m-2772 -223 c112 -30 205 -108 254 -213 31 -65
31 -68 36 -263 6 -246 17 -229 -170 -258 -227 -37 -238 -32 -238 93 -1 99 -13
145 -50 178 -37 33 -61 34 -200 6 -148 -30 -186 -52 -225 -127 -15 -30 -16
-67 -13 -340 4 -262 7 -314 22 -354 23 -63 82 -128 142 -157 80 -40 444 -241
499 -275 62 -40 146 -131 174 -188 49 -103 52 -138 49 -570 -3 -385 -4 -406
-25 -468 -45 -131 -156 -276 -273 -357 -155 -106 -369 -167 -585 -168 -160 0
-208 16 -291 99 -106 106 -144 244 -144 522 0 178 3 192 49 203 82 21 313 53
336 47 38 -10 45 -41 45 -209 0 -231 8 -239 212 -206 165 26 202 41 239 92
l29 40 0 361 c0 357 0 362 -24 411 -40 86 -98 129 -381 285 -93 51 -198 113
-232 136 -125 88 -219 227 -250 366 -22 100 -19 709 3 796 34 130 144 274 264
347 66 40 169 82 309 125 187 58 334 74 439 46z m6612 -809 c36 -29 69 -77 86
-124 18 -52 17 -160 -2 -220 -40 -123 -163 -239 -312 -293 -204 -74 -1150
-295 -1181 -276 -7 5 -11 66 -11 186 l0 179 53 15 c28 8 70 20 92 25 22 6 85
26 140 45 55 19 285 82 510 140 226 59 434 118 463 132 29 14 65 42 80 61 23
31 27 46 27 100 0 69 4 72 55 30z m-6856 -233 c66 -31 127 -31 337 0 90 13
179 26 197 28 l32 5 0 -269 0 -268 -42 27 c-73 46 -254 150 -346 199 -283 152
-282 151 -282 286 l0 83 27 -34 c14 -18 49 -44 77 -57z"/>
<path d="M7755 7019 c-49 -5 -119 -12 -155 -16 l-65 -8 -3 -475 c-2 -261 0
-499 3 -528 4 -35 15 -62 32 -82 23 -27 30 -30 86 -30 166 0 362 102 419 218
23 47 23 49 23 422 0 335 -2 378 -17 406 -26 48 -72 81 -128 93 -56 12 -65 12
-195 0z m80 -699 c-7 -74 -10 -88 -18 -96 -9 -10 -9 360 0 383 11 24 25 -217
18 -287z"/>
<path d="M7916 5167 c3 -10 9 -15 12 -12 3 3 0 11 -7 18 -10 9 -11 8 -5 -6z"/>
<path d="M7957 5130 c-3 -11 -1 -33 3 -48 7 -23 8 -21 9 21 1 50 -3 60 -12 27z"/>
<path d="M7963 4965 c0 -22 2 -30 4 -17 2 12 2 30 0 40 -3 9 -5 -1 -4 -23z"/>
<path d="M4910 7770 c8 -5 20 -10 25 -10 6 0 3 5 -5 10 -8 5 -19 10 -25 10 -5
0 -3 -5 5 -10z"/>
<path d="M2380 7420 c6 -11 13 -20 16 -20 2 0 0 9 -6 20 -6 11 -13 20 -16 20
-2 0 0 -9 6 -20z"/>
<path d="M2068 7243 c7 -3 16 -2 19 1 4 3 -2 6 -13 5 -11 0 -14 -3 -6 -6z"/>
<path d="M2118 7233 c7 -3 16 -2 19 1 4 3 -2 6 -13 5 -11 0 -14 -3 -6 -6z"/>
<path d="M2429 7213 c-12 -16 -12 -17 1 -7 8 6 22 14 30 17 13 5 12 6 -1 6 -9
1 -23 -7 -30 -16z"/>
<path d="M2178 7213 c6 -2 10 -8 8 -12 -3 -4 1 -8 9 -8 11 0 12 4 4 14 -6 7
-17 13 -23 12 -7 0 -6 -2 2 -6z"/>
<path d="M1194 6454 c-17 -8 -81 -66 -143 -128 -104 -106 -111 -115 -111 -153
0 -77 74 -129 142 -100 43 19 253 234 261 269 11 43 -16 96 -57 113 -44 19
-53 18 -92 -1z"/>
<path d="M9252 6358 c-30 -33 -36 -70 -18 -107 21 -40 44 -51 106 -51 44 0 56
5 81 29 36 36 39 86 8 125 -18 23 -27 26 -88 26 -57 0 -71 -3 -89 -22z"/>
<path d="M775 5875 c-33 -32 -33 -84 -1 -122 24 -27 27 -28 120 -27 85 0 99 3
120 23 33 31 40 65 21 101 -22 43 -43 50 -145 50 -83 0 -93 -2 -115 -25z"/>
<path d="M926 5469 c-21 -16 -26 -29 -26 -64 0 -36 5 -47 32 -70 29 -24 38
-27 95 -23 48 3 68 9 88 28 34 32 34 87 0 124 -21 23 -31 26 -93 26 -55 0 -75
-4 -96 -21z"/>
<path d="M794 5050 c-55 -23 -72 -103 -30 -145 32 -32 91 -39 261 -32 134 6
141 8 163 32 30 35 29 86 -2 122 l-24 28 -174 2 c-95 1 -183 -2 -194 -7z"/>
<path d="M9087 4659 c-28 -16 -46 -67 -37 -101 17 -58 30 -63 191 -66 l147 -3
31 28 c43 40 46 89 6 128 -23 24 -28 25 -172 25 -86 0 -156 -5 -166 -11z"/>
<path d="M8460 4267 c-13 -7 -35 -28 -47 -46 -27 -39 -24 54 -29 -1036 -3
-669 -4 -704 -23 -779 -74 -282 -289 -498 -601 -603 l-85 -28 -1110 -5 c-998
-5 -1114 -7 -1151 -22 -118 -47 -208 -108 -264 -179 l-38 -48 -27 35 c-32 42
-151 132 -220 167 -28 14 -77 30 -110 36 -40 8 -393 11 -1104 11 -1009 0
-1049 1 -1129 20 -287 69 -503 250 -645 540 -34 71 -55 101 -82 119 -69 46
-162 21 -199 -53 -16 -33 -17 -45 -7 -94 16 -80 109 -264 181 -360 162 -215
400 -373 680 -451 l95 -26 1099 -3 c665 -1 1114 -6 1136 -12 50 -13 123 -62
153 -102 14 -18 36 -63 49 -98 17 -48 31 -70 57 -87 89 -60 183 -2 217 133 10
38 85 111 142 137 l47 22 1115 6 c997 5 1122 7 1183 22 247 61 430 160 593
322 174 172 278 369 319 599 13 75 15 219 15 945 l0 857 -27 26 c-16 14 -38
31 -50 37 -29 15 -102 14 -133 -2z"/>
<path d="M8955 4163 c-55 -13 -73 -100 -30 -147 21 -23 32 -26 90 -26 77 0 99
9 120 51 19 37 6 90 -28 114 -21 14 -106 19 -152 8z"/>
<path d="M5933 3787 c-23 -5 -57 -22 -75 -37 -30 -26 -33 -33 -33 -85 0 -52 3
-59 34 -87 32 -28 38 -30 89 -24 82 10 146 48 162 97 16 48 1 110 -33 134 -24
17 -80 18 -144 2z"/>
<path d="M4310 3602 c-74 -28 -89 -40 -100 -82 -15 -55 -3 -106 29 -131 47
-38 187 -12 240 45 35 37 39 102 9 146 -22 32 -28 35 -78 37 -32 1 -74 -5
-100 -15z"/>
<path d="M820 3593 c-59 -22 -79 -96 -39 -147 20 -26 22 -26 149 -26 71 0 136
3 145 6 21 8 45 56 45 89 0 16 -12 38 -29 56 -29 29 -30 29 -143 28 -62 0
-120 -3 -128 -6z"/>
<path d="M1390 3101 c0 -6 4 -13 10 -16 6 -3 7 1 4 9 -7 18 -14 21 -14 7z"/>
<path d="M8075 2920 c-3 -6 1 -7 9 -4 18 7 21 14 7 14 -6 0 -13 -4 -16 -10z"/>
<path d="M6960 2426 c0 -2 8 -10 18 -17 15 -13 16 -12 3 4 -13 16 -21 21 -21
13z"/>
<path d="M2203 2385 c-26 -18 -46 -74 -37 -101 4 -10 16 -29 27 -41 19 -21 29
-23 142 -23 143 0 176 5 204 32 31 28 29 91 -4 123 -23 24 -29 25 -167 25
-112 0 -148 -3 -165 -15z"/>
<path d="M7813 2393 c-55 -11 -73 -104 -28 -148 21 -22 33 -25 100 -25 79 0
127 16 139 45 17 46 -2 107 -41 124 -23 11 -124 13 -170 4z"/>
</g>
</svg>
